<?xml version="1.0" standalone="no"?>
<!DOCTYPE svg PUBLIC "-//W3C//DTD SVG 20010904//EN"
 "http://www.w3.org/TR/2001/REC-SVG-20010904/DTD/svg10.dtd">
<svg version="1.0" xmlns="http://www.w3.org/2000/svg"
 width="495.000000pt" height="496.000000pt" viewBox="0 0 495.000000 496.000000"
 preserveAspectRatio="xMidYMid meet">

<g transform="translate(0.000000,496.000000) scale(0.100000,-0.100000)"
fill="#000000" stroke="none">
<path d="M2387 3563 c-3 -5 -8 -26 -11 -48 -7 -38 -10 -42 -66 -63 l-59 -23
-41 27 -41 27 -60 -59 c-32 -32 -59 -64 -59 -72 0 -7 11 -29 24 -48 l24 -35
-26 -60 c-21 -46 -31 -59 -49 -59 -12 0 -33 -4 -47 -10 -25 -9 -26 -12 -26
-95 0 -83 1 -86 26 -95 14 -6 35 -10 47 -10 18 0 28 -13 49 -59 l26 -60 -24
-35 c-13 -19 -24 -41 -24 -49 0 -22 118 -129 132 -121 7 4 25 16 41 26 27 19
28 19 86 -3 58 -23 60 -25 68 -69 l8 -45 92 -3 c100 -3 93 -7 108 65 4 21 13
33 28 37 12 3 31 12 42 20 16 11 17 17 8 27 -9 9 -22 9 -58 -1 -51 -14 -57
-20 -65 -70 -5 -35 -6 -35 -61 -38 l-55 -3 -10 46 c-9 44 -12 48 -59 65 -27
10 -64 24 -81 31 -27 11 -34 10 -63 -12 l-32 -23 -39 40 -40 39 26 37 c25 35
25 38 10 65 -9 15 -25 51 -35 78 -12 32 -26 51 -37 53 -65 10 -64 9 -64 66 0
57 7 66 56 66 17 0 28 8 35 28 6 15 22 51 36 81 l24 54 -25 35 -25 35 27 33
c37 45 51 48 86 23 26 -20 33 -21 60 -9 17 7 54 21 81 30 47 17 50 21 59 65
l10 46 54 -3 55 -3 11 -43 c10 -40 15 -45 71 -68 89 -38 91 -38 130 -14 l37
23 38 -38 39 -38 -25 -37 -24 -37 23 -54 c13 -30 29 -66 35 -80 8 -20 20 -28
51 -33 l41 -6 0 -55 0 -55 -41 -6 c-43 -7 -56 -25 -75 -98 -6 -25 -4 -27 16
-24 16 2 27 14 35 38 10 30 17 35 61 45 l49 10 3 84 c2 46 -1 88 -6 93 -5 5
-27 12 -51 16 -40 7 -43 10 -66 66 l-24 60 24 32 c14 18 25 39 25 47 0 13
-112 127 -125 127 -3 0 -21 -11 -39 -25 -40 -30 -38 -30 -103 -3 -43 18 -53
26 -58 52 -14 69 -9 66 -105 66 -49 0 -91 -3 -93 -7z"/>
<path d="M2373 3376 c-92 -30 -167 -98 -210 -191 -39 -84 -39 -195 -1 -277 35
-75 98 -141 167 -175 49 -25 67 -28 151 -28 85 0 101 3 149 28 l53 29 28 -27
c15 -15 30 -39 33 -53 4 -17 46 -66 111 -131 100 -98 107 -103 138 -97 67 13
99 88 59 137 -15 19 -21 21 -34 11 -12 -10 -13 -19 -4 -41 13 -37 3 -61 -25
-61 -35 0 -201 169 -196 200 5 39 33 48 67 23 26 -20 30 -21 42 -6 11 13 9 19
-14 39 -16 13 -36 24 -45 24 -9 0 -30 14 -48 31 l-32 31 24 46 c90 173 15 387
-164 473 -58 28 -186 36 -249 15z m10 -69 c-11 -12 -28 -37 -39 -54 -16 -29
-23 -33 -62 -33 -38 0 -42 2 -33 18 19 35 136 110 150 96 3 -2 -5 -14 -16 -27z
m230 7 c41 -22 77 -50 94 -74 13 -19 12 -20 -29 -20 -42 0 -45 2 -80 55 -38
58 -36 65 15 39z m-153 -44 l0 -50 -40 0 c-39 0 -40 1 -29 23 11 20 59 77 66
77 2 0 3 -22 3 -50z m103 -19 l18 -31 -40 0 -41 0 0 52 0 51 23 -21 c12 -11
30 -35 40 -51z m-257 -98 c-2 -10 -7 -33 -11 -50 -6 -32 -8 -33 -61 -33 -60 0
-64 7 -43 69 10 30 13 31 66 31 47 0 54 -2 49 -17z m154 -33 l0 -50 -60 0
c-66 0 -67 2 -54 69 6 30 8 31 60 31 l54 0 0 -50z m144 42 c3 -5 8 -28 12 -50
l7 -42 -62 0 -61 0 0 50 0 50 49 0 c28 0 52 -4 55 -8z m164 -31 c18 -59 17
-61 -43 -61 -59 0 -59 0 -70 63 l-6 37 54 0 54 0 11 -39z m-473 -143 c4 -18 9
-41 11 -50 5 -16 -2 -18 -49 -18 -53 0 -56 1 -66 31 -21 62 -17 69 43 69 53 0
55 -1 61 -32z m165 -18 l0 -50 -54 0 c-52 0 -54 1 -60 31 -13 67 -12 69 54 69
l60 0 0 -50z m156 8 c-9 -57 -11 -58 -67 -58 l-49 0 0 50 0 50 61 0 62 0 -7
-42z m164 31 c0 -7 -5 -29 -12 -50 l-11 -39 -54 0 -54 0 6 38 c4 20 8 43 10
50 6 16 115 17 115 1z m-432 -178 c12 -21 29 -44 37 -51 27 -22 16 -31 -20
-16 -44 19 -103 63 -116 88 -9 16 -5 18 34 18 40 0 45 -3 65 -39z m112 -6 c0
-25 -4 -45 -9 -45 -6 0 -21 15 -34 33 -42 56 -42 57 2 57 l41 0 0 -45z m103
14 c-10 -16 -28 -40 -40 -51 l-23 -21 0 51 0 52 41 0 40 0 -18 -31z m144 11
c-23 -34 -108 -90 -136 -90 -5 0 7 25 27 55 35 53 38 55 80 55 41 0 42 -1 29
-20z m48 -70 c10 -11 14 -20 8 -20 -5 0 -18 9 -28 20 -10 11 -14 20 -8 20 5 0
18 -9 28 -20z"/>
<path d="M2931 2677 c-17 -21 23 -55 44 -37 14 12 14 15 -1 31 -20 23 -28 23
-43 6z"/>
<path d="M1380 1944 l0 -116 41 -49 c34 -41 47 -49 74 -49 26 0 39 7 58 31
l25 32 23 -32 c18 -25 30 -31 59 -31 31 0 41 6 72 48 39 50 41 60 39 195 l-1
87 -30 0 -30 0 0 -100 c0 -88 -3 -105 -22 -130 -12 -17 -25 -30 -29 -30 -4 0
-17 15 -28 34 -17 28 -21 50 -21 130 l0 96 -35 0 -35 0 0 -102 c0 -93 -2 -106
-23 -132 l-24 -29 -26 35 c-25 32 -27 42 -27 131 l0 97 -30 0 -30 0 0 -116z"/>
<path d="M1820 1895 l0 -165 140 0 140 0 0 35 0 35 -110 0 -110 0 0 30 0 30
100 0 100 0 0 35 0 35 -101 0 -100 0 3 33 3 32 108 3 107 3 0 29 0 30 -140 0
-140 0 0 -165z"/>
<path d="M2146 2045 c-3 -9 -5 -83 -5 -165 l1 -150 132 0 c116 0 135 2 149 18
22 24 23 109 2 132 -14 15 -14 18 0 30 18 15 21 120 3 138 -8 8 -55 12 -144
12 -109 0 -133 -3 -138 -15z m232 -82 l3 -33 -85 0 -86 0 0 35 0 36 83 -3 82
-3 3 -32z m2 -133 l0 -30 -85 0 -85 0 0 30 0 30 85 0 85 0 0 -30z"/>
<path d="M2680 1895 l0 -165 30 0 c29 0 30 1 30 50 l0 50 53 0 c47 0 57 -4 85
-33 18 -18 32 -41 32 -50 0 -13 9 -17 35 -17 33 0 35 2 35 32 0 17 -7 40 -17
50 -15 17 -15 19 0 36 13 14 17 38 17 99 0 112 -1 113 -168 113 l-132 0 0
-165z m230 55 l0 -50 -85 0 -85 0 0 43 c0 24 3 47 7 50 3 4 42 7 85 7 l78 0 0
-50z"/>
<path d="M3067 2012 l-47 -48 0 -117 0 -117 35 0 35 0 0 50 0 50 80 0 80 0 0
-50 0 -50 35 0 35 0 0 165 0 165 -103 0 -103 0 -47 -48z m183 -62 l0 -50 -80
0 c-93 0 -102 12 -48 67 27 28 39 33 80 33 l48 0 0 -50z"/>
<path d="M3382 2048 c-17 -17 -17 -289 0 -306 17 -17 249 -17 266 0 7 7 12 44
12 95 l0 83 -70 0 -70 0 0 -30 c0 -25 4 -30 25 -31 14 -1 31 -2 38 -3 6 0 13
-13 15 -28 l3 -28 -85 0 -86 0 0 100 0 100 85 0 c69 0 85 -3 85 -15 0 -10 10
-15 30 -15 27 0 30 3 30 33 0 53 -11 57 -145 57 -81 0 -125 -4 -133 -12z"/>
</g>
</svg>
